<svg contentStyleType="text/css" height="198" preserveAspectRatio="none" viewBox="0 0 286 198" width="286" xmlns="http://www.w3.org/2000/svg" zoomAndPan="magnify"><path d="m8.5 6.294h76a3.75 3.75 0 0 1 2.5 2.5l7 20.2999h182.5a2.5 2.5 0 0 1 2.5 2.5v157.2001a2.5 2.5 0 0 1 -2.5 2.5h-268a2.5 2.5 0 0 1 -2.5-2.5v-180a2.5 2.5 0 0 1 2.5-2.5" fill="none" stroke="#000" stroke-width="1.5"/><path d="m6 29.0939h88" fill="none" stroke="#000" stroke-width="1.5"/><text font-family="sans-serif" font-size="14" font-weight="bold" lengthAdjust="spacing" textLength="75" x="10" y="21.2999">ACU image</text><rect fill="#f1f1f1" height="36.7999" rx="2.5" stroke="#181818" stroke-width=".5" width="158" x="22" y="41.294"/><text font-family="sans-serif" font-size="14" lengthAdjust="spacing" textLength="138" x="32" y="64.2999">Kernel (with initramfs)</text><rect fill="#f1f1f1" height="36.7999" rx="2.5" stroke="#181818" stroke-width=".5" width="48" x="215" y="41.294"/><text font-family="sans-serif" font-size="14" lengthAdjust="spacing" textLength="28" x="225" y="64.2999">FDT</text><rect fill="#f1f1f1" height="36.7999" rx="2.5" stroke="#181818" stroke-width=".5" width="81" x="60.5" y="138.294"/><text font-family="sans-serif" font-size="14" lengthAdjust="spacing" textLength="61" x="70.5" y="161.2999">Signature</text></svg>