<svg contentStyleType="text/css" height="198" preserveAspectRatio="none" viewBox="0 0 288 198" width="288" xmlns="http://www.w3.org/2000/svg" zoomAndPan="magnify"><path d="m8.5 6.294h68a3.75 3.75 0 0 1 2.5 2.5l7 20.2999h192.5a2.5 2.5 0 0 1 2.5 2.5v157.2001a2.5 2.5 0 0 1 -2.5 2.5h-270a2.5 2.5 0 0 1 -2.5-2.5v-180a2.5 2.5 0 0 1 2.5-2.5" fill="none" stroke="#000" stroke-width="1.5"/><path d="m6 29.0939h80" fill="none" stroke="#000" stroke-width="1.5"/><text font-family="sans-serif" font-size="14" font-weight="bold" lengthAdjust="spacing" textLength="67" x="10" y="21.2999">FIT image</text><rect fill="#f1f1f1" height="36.7999" rx="2.5" stroke="#181818" stroke-width=".5" width="104" x="22" y="41.294"/><text font-family="sans-serif" font-size="14" lengthAdjust="spacing" textLength="84" x="32" y="64.2999">Subimage #0</text><rect fill="#f1f1f1" height="36.7999" rx="2.5" stroke="#181818" stroke-width=".5" width="104" x="161" y="41.294"/><text font-family="sans-serif" font-size="14" lengthAdjust="spacing" textLength="84" x="171" y="64.2999">Subimage #1</text><rect fill="#f1f1f1" height="36.7999" rx="2.5" stroke="#181818" stroke-width=".5" width="106" x="22" y="138.294"/><text font-family="sans-serif" font-size="14" lengthAdjust="spacing" textLength="86" x="32" y="161.2999">Subimage #N</text></svg>